<svg xmlns="http://www.w3.org/2000/svg" viewBox="0 0 659.09 142.1"><defs><style>.cls-1{fill:#53a240;}.cls-2{fill:#233644;}</style></defs><g id="Capa_2" data-name="Capa 2"><g id="Capa_1-2" data-name="Capa 1"><path class="cls-1" d="M177.35,70.22h19.27V78H164.4V50h46.2c-.16-4.16-1.19-7.18-3.26-9.11s-5.72-3-10.83-3h-32c-5.2,0-8.78,1-10.93,3.09s-3.22,5.59-3.22,10.68V76.48c0,5.14,1,8.63,3.21,10.69s5.7,3,10.94,3h32c5.24,0,8.82-1,11-3.07s3.2-5.56,3.2-10.65V58.69H177.35Z"/><path class="cls-1" d="M246,37.84,215.69,90.2h14.88l6-11h29.63l6.15,11h15.68l-31-52.36ZM243.2,67.23l8.17-14.67,8.2,14.67Z"/><path class="cls-1" d="M337.62,37.84H295.17V90.2h14V71.69h28.41c4.35,0,7.49-.9,9.61-2.76s3.29-4.89,3.29-8.83V49.54c0-4-1.11-7-3.29-8.95s-5.26-2.75-9.61-2.75m-28.41,12H333.6a5.06,5.06,0,0,1,2.49.36s.28.33.28,1.54v6a2.61,2.61,0,0,1-.28,1.52,4.79,4.79,0,0,1-2.49.38H309.21Z"/><polygon class="cls-2" points="155.88 125.47 150.27 101.95 155.13 101.95 158.68 118.11 162.97 101.95 168.62 101.95 172.74 118.38 176.35 101.95 181.13 101.95 175.42 125.47 170.38 125.47 165.7 107.89 161.03 125.47 155.88 125.47"/><polygon class="cls-2" points="206.5 125.47 206.5 101.95 223.94 101.95 223.94 105.93 211.25 105.93 211.25 111.15 223.06 111.15 223.06 115.11 211.25 115.11 211.25 121.51 224.39 121.51 224.39 125.47 206.5 125.47"/><path class="cls-2" d="M249.76,102h9.4a26.49,26.49,0,0,1,4.17.24,6.27,6.27,0,0,1,2.45,1,6.07,6.07,0,0,1,1.8,2,5.37,5.37,0,0,1,.73,2.76A5.58,5.58,0,0,1,265,113a6.19,6.19,0,0,1,3.3,2.13,5.67,5.67,0,0,1,1.15,3.54,7,7,0,0,1-.75,3.12,6.18,6.18,0,0,1-2,2.42,6.71,6.71,0,0,1-3.18,1.12c-.8.08-2.71.14-5.73.16h-8Zm4.75,3.92v5.44h3.12c1.84,0,3,0,3.45-.08a3.17,3.17,0,0,0,1.91-.85,2.43,2.43,0,0,0,.69-1.83,2.6,2.6,0,0,0-.59-1.78,2.79,2.79,0,0,0-1.79-.82c-.47,0-1.83-.08-4.06-.08Zm0,9.35v6.29h4.4a20.59,20.59,0,0,0,3.25-.15,2.79,2.79,0,0,0,2.4-2.93,3.11,3.11,0,0,0-.52-1.8,2.89,2.89,0,0,0-1.48-1.07,15.89,15.89,0,0,0-4.22-.34Z"/><path class="cls-2" d="M322.85,117.82l4.62-.45a5.67,5.67,0,0,0,1.69,3.42,5.16,5.16,0,0,0,3.44,1.09,5.35,5.35,0,0,0,3.46-1,2.91,2.91,0,0,0,1.16-2.27,2.11,2.11,0,0,0-.49-1.42,4,4,0,0,0-1.71-1c-.56-.19-1.82-.54-3.8-1a12.89,12.89,0,0,1-5.36-2.32,6.14,6.14,0,0,1-2.17-4.73,6,6,0,0,1,1-3.36,6.38,6.38,0,0,1,2.94-2.39,11.79,11.79,0,0,1,4.62-.81q4.43,0,6.67,1.93a6.86,6.86,0,0,1,2.34,5.19l-4.74.2a4.06,4.06,0,0,0-1.31-2.6,4.79,4.79,0,0,0-3-.79,5.47,5.47,0,0,0-3.24.84,1.7,1.7,0,0,0-.75,1.46,1.79,1.79,0,0,0,.7,1.43,12.3,12.3,0,0,0,4.36,1.57,23.28,23.28,0,0,1,5.13,1.7,6.65,6.65,0,0,1,2.6,2.38,7.39,7.39,0,0,1-.19,7.54,6.82,6.82,0,0,1-3.18,2.62,13.3,13.3,0,0,1-5.11.86q-4.46,0-6.85-2.06a9,9,0,0,1-2.85-6"/><path class="cls-2" d="M363.84,113.86a15,15,0,0,1,1.07-6,11,11,0,0,1,2.19-3.23,9,9,0,0,1,3-2.11,12.92,12.92,0,0,1,5.07-.93,11,11,0,0,1,8.32,3.22q3.12,3.23,3.12,9t-3.1,8.9a12.36,12.36,0,0,1-16.62,0q-3.09-3.19-3.09-8.81m4.89-.16q0,4,1.84,6a6,6,0,0,0,4.69,2.06,5.94,5.94,0,0,0,4.65-2q1.83-2,1.83-6.14t-1.77-6a6.58,6.58,0,0,0-9.45,0c-1.19,1.35-1.79,3.37-1.79,6.08"/><polygon class="cls-2" points="408.52 125.47 408.52 102.15 413.27 102.15 413.27 121.51 425.07 121.51 425.07 125.47 408.52 125.47"/><path class="cls-2" d="M446.94,102h4.74v12.74a25.44,25.44,0,0,0,.19,3.93,3.77,3.77,0,0,0,1.45,2.32,5.06,5.06,0,0,0,3.13.87,4.8,4.8,0,0,0,3.05-.82,3.24,3.24,0,0,0,1.23-2,26,26,0,0,0,.22-4V102h4.74v12.36a32.46,32.46,0,0,1-.38,6,6.62,6.62,0,0,1-1.42,2.95,7.22,7.22,0,0,1-2.77,1.92,12,12,0,0,1-4.52.71,13,13,0,0,1-5.11-.78,7.27,7.27,0,0,1-2.75-2,6.54,6.54,0,0,1-1.34-2.6,29.41,29.41,0,0,1-.46-6Z"/><polygon class="cls-2" points="494.54 125.47 494.54 105.93 487.56 105.93 487.56 101.95 506.25 101.95 506.25 105.93 499.29 105.93 499.29 125.47 494.54 125.47"/><rect class="cls-2" x="528.12" y="101.95" width="4.75" height="23.51"/><path class="cls-2" d="M554.75,113.86a14.85,14.85,0,0,1,1.08-6A11,11,0,0,1,558,104.6a9.11,9.11,0,0,1,3-2.11,12.87,12.87,0,0,1,5.06-.93,11,11,0,0,1,8.32,3.22q3.12,3.23,3.12,9t-3.1,8.9a10.93,10.93,0,0,1-8.28,3.22,11.06,11.06,0,0,1-8.34-3.2q-3.09-3.19-3.09-8.81m4.9-.16q0,4,1.84,6a6.34,6.34,0,0,0,9.34,0c1.22-1.36,1.82-3.41,1.82-6.14s-.59-4.7-1.77-6a6.57,6.57,0,0,0-9.44,0c-1.2,1.35-1.79,3.37-1.79,6.08"/><polygon class="cls-2" points="599.43 125.47 599.43 101.95 604.06 101.95 613.68 117.66 613.68 101.95 618.1 101.95 618.1 125.47 613.33 125.47 603.85 110.14 603.85 125.47 599.43 125.47"/><path class="cls-2" d="M640,117.82l4.62-.45a5.67,5.67,0,0,0,1.69,3.42,5.16,5.16,0,0,0,3.44,1.09,5.35,5.35,0,0,0,3.46-1,2.88,2.88,0,0,0,1.16-2.27,2.11,2.11,0,0,0-.49-1.42,3.93,3.93,0,0,0-1.7-1c-.56-.19-1.83-.54-3.81-1a13,13,0,0,1-5.36-2.32,6.13,6.13,0,0,1-2.16-4.73,6,6,0,0,1,1-3.36,6.41,6.41,0,0,1,2.93-2.39,11.88,11.88,0,0,1,4.63-.81q4.43,0,6.67,1.93a6.9,6.9,0,0,1,2.34,5.19l-4.74.2a4.06,4.06,0,0,0-1.31-2.6,4.77,4.77,0,0,0-3-.79,5.51,5.51,0,0,0-3.24.84,1.72,1.72,0,0,0-.75,1.46,1.82,1.82,0,0,0,.7,1.43,12.38,12.38,0,0,0,4.37,1.57,23.35,23.35,0,0,1,5.12,1.7,6.72,6.72,0,0,1,2.6,2.38,7.07,7.07,0,0,1,.94,3.75,6.93,6.93,0,0,1-4.3,6.41,13.35,13.35,0,0,1-5.12.86q-4.45,0-6.84-2.06a9,9,0,0,1-2.86-6"/><path class="cls-1" d="M177.35,70.22h19.27V78H164.4V50h46.2c-.16-4.16-1.19-7.18-3.26-9.11s-5.72-3-10.83-3h-32c-5.2,0-8.78,1-10.93,3.09s-3.22,5.59-3.22,10.68V76.48c0,5.14,1,8.63,3.21,10.69s5.7,3,10.94,3h32c5.24,0,8.82-1,11-3.07s3.2-5.56,3.2-10.65V58.69H177.35Z"/><path class="cls-1" d="M246,37.84,215.69,90.2h14.88l6-11h29.63l6.15,11h15.68l-31-52.36ZM243.2,67.23l8.17-14.67,8.2,14.67Z"/><path class="cls-1" d="M337.62,37.84H295.17V90.2h14V71.69h28.41c4.35,0,7.49-.9,9.61-2.76s3.29-4.89,3.29-8.83V49.54c0-4-1.11-7-3.29-8.95s-5.26-2.75-9.61-2.75m-28.41,12H333.6a5.06,5.06,0,0,1,2.49.36s.28.33.28,1.54v6a2.61,2.61,0,0,1-.28,1.52,4.79,4.79,0,0,1-2.49.38H309.21Z"/><polygon class="cls-2" points="376.75 37.84 362.71 37.84 362.71 90.19 413.49 90.19 413.49 77.95 376.75 77.95 376.75 37.84"/><path class="cls-2" d="M469.49,37.84H435.37c-5.2,0-8.77,1-10.92,3.09s-3.23,5.59-3.23,10.68V76.48c0,5.13,1,8.62,3.17,10.68s5.71,3,11,3h34.12c5.24,0,8.82-1,10.95-3.07s3.2-5.56,3.2-10.65V51.61c0-5.09-1.05-8.58-3.23-10.68s-5.72-3.09-10.92-3.09M469.6,78H435.26V50H469.6Z"/><path class="cls-2" d="M525.11,70.22h19.26V78H512.16V50h46.19c-.14-4.16-1.18-7.18-3.25-9.11s-5.72-3-10.84-3h-32c-5.19,0-8.76,1-10.91,3.09s-3.23,5.59-3.23,10.68V76.48c0,5.14,1.05,8.63,3.21,10.69s5.7,3,10.93,3h32c5.24,0,8.82-1,11-3.07s3.2-5.56,3.2-10.65V58.69h-33.3Z"/><rect class="cls-2" x="572.84" y="37.95" width="13.99" height="52.24"/><path class="cls-2" d="M655,40.93c-2.13-2.08-5.71-3.09-11-3.09H616.27c-5.2,0-8.76,1-10.87,3s-3.17,5.58-3.17,10.74V76.48c0,5.21,1,8.72,3.16,10.75s5.65,3,10.88,3H644c5.24,0,8.82-1,11-3.07s3.2-5.56,3.2-10.65V68.81h-14V78H616.27V50h27.86v8.27h14V51.61c0-5.08-1-8.57-3.19-10.68"/><path class="cls-1" d="M116.4,57.83a57.47,57.47,0,0,0-5.8-25.26c-8.22,14-11,49.1-19.31,63.54l-.12,0-7-23.4A46.87,46.87,0,0,1,63.8,99.5l.07.08A59.66,59.66,0,0,1,32.58,108a56.58,56.58,0,0,1-6.55-.43L58.57,142.1,99.46,98.74h0A57.66,57.66,0,0,0,116.4,57.83"/><path class="cls-2" d="M78.31,38.71a107,107,0,0,0-10.52,6.58c-3.28,2.48-6.7,5-8.93,8.57a26,26,0,0,1,4.6-4q2.45-1.83,5.06-3.45c3.45-2.18,7-4.28,10.59-6.17s7.24-3.8,11-5.49a69.27,69.27,0,0,1,11.5-4.27,44.63,44.63,0,0,0-12,3.08,106.18,106.18,0,0,0-11.26,5.2"/><path class="cls-2" d="M63.14,44.58c7.61-6,24.25-14.8,44.56-17.25A57.8,57.8,0,0,0,45.46,1.51c1,.22,1.91.47,2.82.74l.52.15c10.8,3.22,18.45,8.85,25,11.9,2.29,1.22,4.69,2.44,7.31,3.6-2.37,1.2-4.38,2.23-6.15,3.18-7,3.76-10.24,6.13-17.39,12.06A32.67,32.67,0,0,0,5.23,35.46C-1.18,44.6-.49,57.64,1,63.55c.18.6.37,1.2.59,1.79,0,.12.08.24.13.36A33,33,0,0,0,27.83,86.51a33.82,33.82,0,0,0,4.75.38l.83,0c6.08-.4,17.54-3.77,29.78-25.35l-23.4,7c4.72-8.79,13-17.07,23.35-24"/></g></g></svg>