<svg xmlns="http://www.w3.org/2000/svg" viewBox="0 0 1259.6 121.82"><defs><linearGradient id="b" x1="359.51" y1="-330.64" x2="652.3" y2="176.48" gradientUnits="userSpaceOnUse"><stop offset="0" stop-color="#8fffbc"><animate attributeName="stop-color" values="#8fffbc; #8ff7a7; #8fffbc" dur="4s" repeatCount="indefinite"/></stop><stop offset="1" stop-color="#85fff8"><animate attributeName="stop-color" values="#85fff8; #00b6ff; #85fff8" dur="4s" repeatCount="indefinite"/></stop></linearGradient><linearGradient id="c" x1="607.3" y1="-54.66" x2="900.09" y2="452.46" gradientUnits="userSpaceOnUse"><stop offset="0" stop-color="#fff480"><animate attributeName="stop-color" values="#fff480; #ffcc33; #fff480;" dur="4s" repeatCount="indefinite"/></stop><stop offset="1" stop-color="#8fffbc"><animate attributeName="stop-color" values="#8fffbc; #8ff7a7; #8fffbc" dur="4s" repeatCount="indefinite"/></stop></linearGradient><clipPath id="a"><path d="M306.67 121.45h24.53c2.98 0 4.85-3.23 3.36-5.81L269.22 2.46a3.872 3.872 0 0 0-3.36-1.94h-20.6c-1.38 0-2.66.74-3.36 1.94l-65.34 113.17c-1.49 2.58.37 5.81 3.36 5.81h24.53c1.38 0 2.66-.74 3.36-1.94l12.02-20.82c.69-1.2 1.97-1.94 3.36-1.94h64.76c1.38 0 2.66.74 3.36 1.94l12.02 20.82c.69 1.2 1.97 1.94 3.36 1.94Zm-67.89-55.6 13.42-23.24c1.49-2.58 5.22-2.58 6.71 0l13.42 23.24c1.49 2.58-.37 5.81-3.36 5.81h-26.84c-2.98 0-4.85-3.23-3.36-5.81ZM511.11 29.4C511.03 15.6 499.83.53 486.01.53H355.87c-2.23 0-4.05 1.81-4.05 4.05v113.34a3.91 3.91 0 0 0 3.91 3.91h25.7c2.14 0 3.87-1.73 3.87-3.87V83.55c0-2.13 1.73-3.86 3.86-3.86h92.94c16.03 0 29.02-12.99 29.02-29.02V29.4Zm-33.58 17.3c0 2.18-1.76 3.94-3.93 3.97h-84.26c-2.23 0-4.04-1.81-4.04-4.04V33.5c0-2.18 1.77-3.96 3.96-3.96h84.41c2.13 0 3.86 1.73 3.86 3.86v13.3Zm94.83 46.09h81.29c2.18 0 3.95 1.77 3.95 3.95v20.76c0 2.18-1.77 3.95-3.95 3.95H540.1c-2.18 0-3.95-1.77-3.95-3.95V3.95c0-2.18 1.77-3.95 3.95-3.95h24.37c2.18 0 3.95 1.77 3.95 3.95v84.9c0 2.18 1.77 3.95 3.95 3.95ZM808.53.52H699.45c-13.87 0-25.11 11.24-25.11 25.11v71.08c0 13.87 11.24 25.11 25.11 25.11h109.08c13.87 0 25.11-11.24 25.11-25.11V25.63c0-13.87-11.24-25.11-25.11-25.11Zm-8.37 88.32c0 2.19-1.77 3.96-3.96 3.96h-84.43c-2.19 0-3.96-1.77-3.96-3.96V33.5c0-2.19 1.77-3.96 3.96-3.96h84.43c2.19 0 3.96 1.77 3.96 3.96v55.34Zm91.99-55.34v55.34c0 2.19 1.77 3.96 3.96 3.96h84.42c2.19 0 3.96-1.77 3.96-3.96V75.59a3.93 3.93 0 0 0-3.93-3.93h-33.82c-2.15 0-3.88-1.74-3.88-3.88V50.51c0-2.14 1.74-3.88 3.88-3.88h67.37c2.13 0 3.86 1.73 3.86 3.86v46.22c0 13.87-11.24 25.11-25.11 25.11H883.78c-13.87 0-25.11-11.24-25.11-25.11V25.63c0-13.87 11.24-25.11 25.11-25.11h109.08c13.87 0 25.11 11.24 25.11 25.11a3.91 3.91 0 0 1-3.91 3.91H896.11c-2.19 0-3.96 1.77-3.96 3.96Zm-858.67 0v55.34c0 2.19 1.77 3.96 3.96 3.96h84.42c2.19 0 3.96-1.77 3.96-3.96V75.59a3.93 3.93 0 0 0-3.93-3.93H88.07c-2.15 0-3.88-1.74-3.88-3.88V50.51c0-2.14 1.74-3.88 3.88-3.88h67.37c2.13 0 3.86 1.73 3.86 3.86v46.22c0 13.87-11.24 25.11-25.11 25.11H25.11C11.24 121.82 0 110.58 0 96.71V25.63C0 11.76 11.24.52 25.11.52h109.08c13.87 0 25.11 11.24 25.11 25.11a3.91 3.91 0 0 1-3.91 3.91H37.44c-2.19 0-3.96 1.77-3.96 3.96Zm1037.9 87.95h-24.49c-2.14 0-3.88-1.74-3.88-3.88V3.88c0-2.14 1.74-3.88 3.88-3.88h24.49c2.14 0 3.88 1.74 3.88 3.88v113.68c0 2.14-1.74 3.88-3.88 3.88Zm158.69-36.56h25.64c2.15 0 3.88 1.74 3.88 3.88v7.94c0 13.87-11.24 25.11-25.11 25.11H1125.4c-13.87 0-25.11-11.24-25.11-25.11V25.63c0-13.87 11.24-25.11 25.11-25.11h109.08c13.87 0 25.11 11.24 25.11 25.11v7.96c0 2.14-1.73 3.87-3.87 3.87h-25.65c-2.19 0-3.96-1.77-3.96-3.96s-1.77-3.96-3.96-3.96h-84.43c-2.19 0-3.96 1.77-3.96 3.96v55.34c0 2.19 1.77 3.96 3.96 3.96h84.42c2.19 0 3.96-1.77 3.96-3.96s1.77-3.96 3.96-3.96Z" style="fill:none"/></clipPath></defs><g/><g style="clip-path:url(#a)"><path d="M88.46 244.9H0v-367.97h1171.14C674.03 60.91 88.46 244.9 88.46 244.9Z" style="fill:url(#b)"/><path d="M1259.6 244.9H88.46C585.57 60.91 1171.14-123.07 1171.14-123.07h88.46V244.9Z" style="fill:url(#c)"/></g></svg>